# xmcd CD Database Entry
#
# Track frame offsets:
# 150
# 18526
# 37328
# 51801
# 69470
# 88023
# 114249
# 135958
# 154473
# 170577
# 192221
# 208154
# 224480
# 241499
# 258413
# 279112
# 301814
# 317245
#
# Disc length: 4379 seconds
#
# Revision: 2
# Processed by: cddbd v1.4PL0 Copyright (c) Steve Scherf et al.
# Submitted via: tcd 2.0b
#
DISCID=08111912
DTITLE=Manitoba Folk Alliance 2001/Compilation
DYEAR=1900
DGENRE=
TTITLE0=Roddy McCorley/SCruj MacDuhk
TTITLE1=Back Into Your Arms/The Wyrd Sisters
TTITLE2=Acadie/Art Turner
TTITLE3=Time/Sam Baardman
TTITLE4=Come All Ye Sailors/Cara Luft
TTITLE5=Turly/Nicky Mehta
TTITLE6=Not Forgotten/Jaylene Johnson
TTITLE7=Faithful/Rick Unruh
TTITLE8=A day in the Road/Christine Fellows
TTITLE9=L'araignee blanche/Marcel Soulodre
TTITLE10=Under the Same Sky/Fubuki Daiko
TTITLE11=The Song of the Seals/Jennifer Clarke Skromeda
TTITLE12=Talkin (Bout My Baby)/Steve Schellenberg
TTITLE13=Homeward Bound/Heather Bishop
TTITLE14=Peace/Monica Schroeder
TTITLE15=The Long and Lonely Ride/Strange Angels
TTITLE16=Do You Know/Mark Reeves
TTITLE17=Ballyhoo/Nathan
EXTD=
EXTT0=
EXTT1=
EXTT2=
EXTT3=
EXTT4=
EXTT5=
EXTT6=
EXTT7=
EXTT8=
EXTT9=
EXTT10=
EXTT11=
EXTT12=
EXTT13=
EXTT14=
EXTT15=
EXTT16=
EXTT17=
PLAYORDER=
